<?xml version="1.0" encoding="utf-8"?>
<!-- Generator: Adobe Illustrator 18.0.0, SVG Export Plug-In . SVG Version: 6.00 Build 0)  -->
<!DOCTYPE svg PUBLIC "-//W3C//DTD SVG 1.1//EN" "http://www.w3.org/Graphics/SVG/1.1/DTD/svg11.dtd">
<svg version="1.1" id="Layer_1" xmlns="http://www.w3.org/2000/svg" xmlns:xlink="http://www.w3.org/1999/xlink" x="0px" y="0px"
	 viewBox="0 0 1920 1080" enable-background="new 0 0 1920 1080" xml:space="preserve">
<symbol  id="New_Symbol" viewBox="-17.9 -38.3 35.8 76.6">
	<path fill="#4051B5" d="M17.9-38.3c0,0-35.8,3.2-35.8,64c2.1-2.1,15.1-2.2,15.1,11c6.1,1.2,20.7,1.6,20.7,1.6V-38.3z"/>
</symbol>
<g>
	<circle fill="#E9F5FF" cx="960" cy="540" r="540"/>
	<g>
		
			<use xlink:href="#New_Symbol"  width="35.8" height="76.6" id="XMLID_2_" x="-17.9" y="-38.3" transform="matrix(9.6278 0 0 -9.6278 787.6587 564.0386)" overflow="visible"/>
		
			<use xlink:href="#New_Symbol"  width="35.8" height="76.6" id="XMLID_1_" x="-17.9" y="-38.3" transform="matrix(-9.6278 0 0 -9.6278 1132.3413 564.0386)" overflow="visible"/>
		<path fill="#E9F5FF" d="M1129.2,333.4H790.8l-14.6,375.1h27.6c5.6,16.6,21.3,28.5,39.7,28.5c18.5,0,34.1-12,39.7-28.5h152.4
			c5.6,16.6,21.3,28.5,39.7,28.5c18.5,0,34.1-12,39.7-28.5h28.7L1129.2,333.4z M921.3,352.6h79.4v23h-79.4V352.6z M844,665.8
			c-18.5,0-33.5-15-33.5-33.5c0-18.5,15-33.5,33.5-33.5c18.5,0,33.5,15,33.5,33.5C877.5,650.8,862.5,665.8,844,665.8z M810.6,565.7
			l4.2-167.1H1105l4.2,167.1H810.6z M1076.3,665.8c-18.5,0-33.5-15-33.5-33.5c0-18.5,15-33.5,33.5-33.5c18.5,0,33.5,15,33.5,33.5
			C1109.8,650.8,1094.8,665.8,1076.3,665.8z"/>
	</g>
</g>
</svg>
